<svg xmlns="http://www.w3.org/2000/svg" viewBox="0 0 32 32" width="1024" height="1024" shape-rendering="crispEdges"><title>Pip: Streak Alarm</title><rect x="23" y="0" width="1" height="1" fill="#1a1a22"/><rect x="27" y="0" width="1" height="1" fill="#1a1a22"/><rect x="22" y="1" width="1" height="1" fill="#1a1a22"/><rect x="23" y="1" width="1" height="1" fill="#e0393e"/><rect x="24" y="1" width="1" height="1" fill="#1a1a22"/><rect x="26" y="1" width="1" height="1" fill="#1a1a22"/><rect x="27" y="1" width="1" height="1" fill="#e0393e"/><rect x="28" y="1" width="1" height="1" fill="#1a1a22"/><rect x="22" y="2" width="1" height="1" fill="#1a1a22"/><rect x="23" y="2" width="1" height="1" fill="#e0393e"/><rect x="24" y="2" width="1" height="1" fill="#1a1a22"/><rect x="26" y="2" width="1" height="1" fill="#1a1a22"/><rect x="27" y="2" width="1" height="1" fill="#e0393e"/><rect x="28" y="2" width="1" height="1" fill="#1a1a22"/><rect x="22" y="3" width="1" height="1" fill="#1a1a22"/><rect x="23" y="3" width="1" height="1" fill="#e0393e"/><rect x="24" y="3" width="1" height="1" fill="#1a1a22"/><rect x="26" y="3" width="1" height="1" fill="#1a1a22"/><rect x="27" y="3" width="1" height="1" fill="#e0393e"/><rect x="28" y="3" width="1" height="1" fill="#1a1a22"/><rect x="18" y="4" width="2" height="1" fill="#15281b"/><rect x="23" y="4" width="1" height="1" fill="#1a1a22"/><rect x="27" y="4" width="1" height="1" fill="#1a1a22"/><rect x="17" y="5" width="1" height="1" fill="#15281b"/><rect x="18" y="5" width="1" height="1" fill="#2fa35e"/><rect x="19" y="5" width="1" height="1" fill="#1d7646"/><rect x="20" y="5" width="1" height="1" fill="#15281b"/><rect x="22" y="5" width="1" height="1" fill="#1a1a22"/><rect x="23" y="5" width="1" height="1" fill="#e0393e"/><rect x="24" y="5" width="1" height="1" fill="#1a1a22"/><rect x="26" y="5" width="1" height="1" fill="#1a1a22"/><rect x="27" y="5" width="1" height="1" fill="#e0393e"/><rect x="28" y="5" width="1" height="1" fill="#1a1a22"/><rect x="17" y="6" width="1" height="1" fill="#15281b"/><rect x="18" y="6" width="2" height="1" fill="#b9f0b4"/><rect x="20" y="6" width="1" height="1" fill="#15281b"/><rect x="23" y="6" width="1" height="1" fill="#1a1a22"/><rect x="27" y="6" width="1" height="1" fill="#1a1a22"/><rect x="16" y="7" width="1" height="1" fill="#15281b"/><rect x="17" y="7" width="1" height="1" fill="#2fa35e"/><rect x="18" y="7" width="2" height="1" fill="#b9f0b4"/><rect x="20" y="7" width="1" height="1" fill="#1d7646"/><rect x="21" y="7" width="1" height="1" fill="#15281b"/><rect x="16" y="8" width="1" height="1" fill="#15281b"/><rect x="17" y="8" width="1" height="1" fill="#2fa35e"/><rect x="18" y="8" width="2" height="1" fill="#b9f0b4"/><rect x="20" y="8" width="1" height="1" fill="#1d7646"/><rect x="21" y="8" width="1" height="1" fill="#15281b"/><rect x="16" y="9" width="1" height="1" fill="#15281b"/><rect x="17" y="9" width="1" height="1" fill="#2fa35e"/><rect x="18" y="9" width="2" height="1" fill="#b9f0b4"/><rect x="20" y="9" width="1" height="1" fill="#1d7646"/><rect x="21" y="9" width="1" height="1" fill="#15281b"/><rect x="16" y="10" width="1" height="1" fill="#15281b"/><rect x="17" y="10" width="1" height="1" fill="#2fa35e"/><rect x="18" y="10" width="2" height="1" fill="#b9f0b4"/><rect x="20" y="10" width="1" height="1" fill="#1d7646"/><rect x="21" y="10" width="1" height="1" fill="#15281b"/><rect x="10" y="11" width="1" height="1" fill="#123a5c"/><rect x="17" y="11" width="1" height="1" fill="#15281b"/><rect x="18" y="11" width="2" height="1" fill="#b9f0b4"/><rect x="20" y="11" width="1" height="1" fill="#15281b"/><rect x="9" y="12" width="1" height="1" fill="#123a5c"/><rect x="10" y="12" width="1" height="1" fill="#7cc8ff"/><rect x="11" y="12" width="1" height="1" fill="#123a5c"/><rect x="17" y="12" width="4" height="1" fill="#15281b"/><rect x="27" y="12" width="2" height="1" fill="#15281b"/><rect x="8" y="13" width="1" height="1" fill="#123a5c"/><rect x="9" y="13" width="1" height="1" fill="#ffffff"/><rect x="10" y="13" width="2" height="1" fill="#7cc8ff"/><rect x="12" y="13" width="1" height="1" fill="#123a5c"/><rect x="15" y="13" width="2" height="1" fill="#15281b"/><rect x="17" y="13" width="4" height="1" fill="#a2e477"/><rect x="21" y="13" width="2" height="1" fill="#15281b"/><rect x="26" y="13" width="1" height="1" fill="#15281b"/><rect x="27" y="13" width="2" height="1" fill="#a2e477"/><rect x="29" y="13" width="1" height="1" fill="#15281b"/><rect x="8" y="14" width="1" height="1" fill="#123a5c"/><rect x="9" y="14" width="3" height="1" fill="#7cc8ff"/><rect x="12" y="14" width="1" height="1" fill="#123a5c"/><rect x="13" y="14" width="1" height="1" fill="#15281b"/><rect x="14" y="14" width="3" height="1" fill="#10231a"/><rect x="17" y="14" width="4" height="1" fill="#a2e477"/><rect x="21" y="14" width="3" height="1" fill="#10231a"/><rect x="24" y="14" width="1" height="1" fill="#15281b"/><rect x="26" y="14" width="1" height="1" fill="#15281b"/><rect x="27" y="14" width="1" height="1" fill="#a2e477"/><rect x="28" y="14" width="2" height="1" fill="#6cc04a"/><rect x="30" y="14" width="1" height="1" fill="#15281b"/><rect x="7" y="15" width="1" height="1" fill="#15281b"/><rect x="8" y="15" width="1" height="1" fill="#a2e477"/><rect x="9" y="15" width="3" height="1" fill="#123a5c"/><rect x="12" y="15" width="1" height="1" fill="#15281b"/><rect x="13" y="15" width="1" height="1" fill="#a2e477"/><rect x="14" y="15" width="4" height="1" fill="#10231a"/><rect x="18" y="15" width="2" height="1" fill="#a2e477"/><rect x="20" y="15" width="4" height="1" fill="#10231a"/><rect x="24" y="15" width="1" height="1" fill="#6cc04a"/><rect x="25" y="15" width="2" height="1" fill="#15281b"/><rect x="27" y="15" width="2" height="1" fill="#6cc04a"/><rect x="29" y="15" width="1" height="1" fill="#3e8f3b"/><rect x="30" y="15" width="1" height="1" fill="#15281b"/><rect x="7" y="16" width="1" height="1" fill="#15281b"/><rect x="8" y="16" width="2" height="1" fill="#6cc04a"/><rect x="10" y="16" width="1" height="1" fill="#3e8f3b"/><rect x="11" y="16" width="1" height="1" fill="#15281b"/><rect x="12" y="16" width="1" height="1" fill="#a2e477"/><rect x="13" y="16" width="1" height="1" fill="#10231a"/><rect x="14" y="16" width="4" height="1" fill="#ffffff"/><rect x="18" y="16" width="2" height="1" fill="#10231a"/><rect x="20" y="16" width="4" height="1" fill="#ffffff"/><rect x="24" y="16" width="1" height="1" fill="#10231a"/><rect x="25" y="16" width="1" height="1" fill="#6cc04a"/><rect x="26" y="16" width="1" height="1" fill="#15281b"/><rect x="27" y="16" width="1" height="1" fill="#6cc04a"/><rect x="28" y="16" width="1" height="1" fill="#3e8f3b"/><rect x="29" y="16" width="1" height="1" fill="#15281b"/><rect x="8" y="17" width="1" height="1" fill="#15281b"/><rect x="9" y="17" width="2" height="1" fill="#3e8f3b"/><rect x="11" y="17" width="1" height="1" fill="#15281b"/><rect x="12" y="17" width="1" height="1" fill="#a2e477"/><rect x="13" y="17" width="1" height="1" fill="#10231a"/><rect x="14" y="17" width="4" height="1" fill="#ffffff"/><rect x="18" y="17" width="2" height="1" fill="#10231a"/><rect x="20" y="17" width="4" height="1" fill="#ffffff"/><rect x="24" y="17" width="1" height="1" fill="#10231a"/><rect x="25" y="17" width="1" height="1" fill="#6cc04a"/><rect x="26" y="17" width="3" height="1" fill="#15281b"/><rect x="9" y="18" width="2" height="1" fill="#15281b"/><rect x="11" y="18" width="2" height="1" fill="#a2e477"/><rect x="13" y="18" width="1" height="1" fill="#10231a"/><rect x="14" y="18" width="2" height="1" fill="#ffffff"/><rect x="16" y="18" width="1" height="1" fill="#10231a"/><rect x="17" y="18" width="1" height="1" fill="#ffffff"/><rect x="18" y="18" width="2" height="1" fill="#10231a"/><rect x="20" y="18" width="1" height="1" fill="#ffffff"/><rect x="21" y="18" width="1" height="1" fill="#10231a"/><rect x="22" y="18" width="2" height="1" fill="#ffffff"/><rect x="24" y="18" width="1" height="1" fill="#10231a"/><rect x="25" y="18" width="2" height="1" fill="#6cc04a"/><rect x="27" y="18" width="1" height="1" fill="#15281b"/><rect x="10" y="19" width="1" height="1" fill="#15281b"/><rect x="11" y="19" width="2" height="1" fill="#a2e477"/><rect x="13" y="19" width="1" height="1" fill="#10231a"/><rect x="14" y="19" width="4" height="1" fill="#ffffff"/><rect x="18" y="19" width="2" height="1" fill="#10231a"/><rect x="20" y="19" width="4" height="1" fill="#ffffff"/><rect x="24" y="19" width="1" height="1" fill="#10231a"/><rect x="25" y="19" width="2" height="1" fill="#6cc04a"/><rect x="27" y="19" width="1" height="1" fill="#15281b"/><rect x="2" y="20" width="1" height="1" fill="#15281b"/><rect x="6" y="20" width="1" height="1" fill="#15281b"/><rect x="10" y="20" width="1" height="1" fill="#15281b"/><rect x="11" y="20" width="2" height="1" fill="#6cc04a"/><rect x="13" y="20" width="1" height="1" fill="#10231a"/><rect x="14" y="20" width="4" height="1" fill="#ffffff"/><rect x="18" y="20" width="2" height="1" fill="#10231a"/><rect x="20" y="20" width="4" height="1" fill="#ffffff"/><rect x="24" y="20" width="1" height="1" fill="#10231a"/><rect x="25" y="20" width="2" height="1" fill="#6cc04a"/><rect x="27" y="20" width="1" height="1" fill="#15281b"/><rect x="1" y="21" width="1" height="1" fill="#15281b"/><rect x="2" y="21" width="1" height="1" fill="#ffd23f"/><rect x="3" y="21" width="3" height="1" fill="#15281b"/><rect x="6" y="21" width="1" height="1" fill="#ffd23f"/><rect x="7" y="21" width="1" height="1" fill="#15281b"/><rect x="10" y="21" width="1" height="1" fill="#15281b"/><rect x="11" y="21" width="2" height="1" fill="#6cc04a"/><rect x="13" y="21" width="2" height="1" fill="#ff8fa3"/><rect x="15" y="21" width="2" height="1" fill="#10231a"/><rect x="17" y="21" width="4" height="1" fill="#ffffff"/><rect x="21" y="21" width="2" height="1" fill="#10231a"/><rect x="23" y="21" width="2" height="1" fill="#ff8fa3"/><rect x="25" y="21" width="1" height="1" fill="#6cc04a"/><rect x="26" y="21" width="1" height="1" fill="#3e8f3b"/><rect x="27" y="21" width="1" height="1" fill="#15281b"/><rect x="0" y="22" width="1" height="1" fill="#15281b"/><rect x="1" y="22" width="1" height="1" fill="#ffd23f"/><rect x="2" y="22" width="1" height="1" fill="#15281b"/><rect x="3" y="22" width="3" height="1" fill="#e0393e"/><rect x="6" y="22" width="1" height="1" fill="#15281b"/><rect x="7" y="22" width="1" height="1" fill="#ffd23f"/><rect x="8" y="22" width="1" height="1" fill="#15281b"/><rect x="10" y="22" width="1" height="1" fill="#ffffff"/><rect x="11" y="22" width="1" height="1" fill="#15281b"/><rect x="12" y="22" width="5" height="1" fill="#6cc04a"/><rect x="17" y="22" width="4" height="1" fill="#10231a"/><rect x="21" y="22" width="3" height="1" fill="#6cc04a"/><rect x="24" y="22" width="2" height="1" fill="#3e8f3b"/><rect x="26" y="22" width="1" height="1" fill="#15281b"/><rect x="0" y="23" width="1" height="1" fill="#ffffff"/><rect x="1" y="23" width="1" height="1" fill="#15281b"/><rect x="2" y="23" width="1" height="1" fill="#e0393e"/><rect x="3" y="23" width="3" height="1" fill="#fff6df"/><rect x="6" y="23" width="1" height="1" fill="#e0393e"/><rect x="7" y="23" width="1" height="1" fill="#15281b"/><rect x="11" y="23" width="1" height="1" fill="#15281b"/><rect x="12" y="23" width="4" height="1" fill="#6cc04a"/><rect x="16" y="23" width="1" height="1" fill="#bdeb93"/><rect x="17" y="23" width="1" height="1" fill="#10231a"/><rect x="18" y="23" width="2" height="1" fill="#f2607a"/><rect x="20" y="23" width="1" height="1" fill="#10231a"/><rect x="21" y="23" width="1" height="1" fill="#bdeb93"/><rect x="22" y="23" width="4" height="1" fill="#3e8f3b"/><rect x="26" y="23" width="1" height="1" fill="#15281b"/><rect x="0" y="24" width="1" height="1" fill="#15281b"/><rect x="1" y="24" width="1" height="1" fill="#e0393e"/><rect x="2" y="24" width="3" height="1" fill="#fff6df"/><rect x="5" y="24" width="1" height="1" fill="#2a2a33"/><rect x="6" y="24" width="1" height="1" fill="#fff6df"/><rect x="7" y="24" width="1" height="1" fill="#e0393e"/><rect x="8" y="24" width="1" height="1" fill="#15281b"/><rect x="12" y="24" width="1" height="1" fill="#15281b"/><rect x="13" y="24" width="2" height="1" fill="#6cc04a"/><rect x="15" y="24" width="2" height="1" fill="#bdeb93"/><rect x="17" y="24" width="1" height="1" fill="#10231a"/><rect x="18" y="24" width="2" height="1" fill="#f2607a"/><rect x="20" y="24" width="1" height="1" fill="#10231a"/><rect x="21" y="24" width="4" height="1" fill="#3e8f3b"/><rect x="25" y="24" width="1" height="1" fill="#15281b"/><rect x="0" y="25" width="1" height="1" fill="#15281b"/><rect x="1" y="25" width="1" height="1" fill="#e0393e"/><rect x="2" y="25" width="3" height="1" fill="#fff6df"/><rect x="5" y="25" width="2" height="1" fill="#2a2a33"/><rect x="7" y="25" width="1" height="1" fill="#e0393e"/><rect x="8" y="25" width="1" height="1" fill="#15281b"/><rect x="13" y="25" width="1" height="1" fill="#15281b"/><rect x="14" y="25" width="1" height="1" fill="#6cc04a"/><rect x="15" y="25" width="4" height="1" fill="#bdeb93"/><rect x="19" y="25" width="5" height="1" fill="#3e8f3b"/><rect x="24" y="25" width="1" height="1" fill="#15281b"/><rect x="0" y="26" width="1" height="1" fill="#ffffff"/><rect x="1" y="26" width="1" height="1" fill="#15281b"/><rect x="2" y="26" width="1" height="1" fill="#e0393e"/><rect x="3" y="26" width="3" height="1" fill="#fff6df"/><rect x="6" y="26" width="1" height="1" fill="#e0393e"/><rect x="7" y="26" width="1" height="1" fill="#15281b"/><rect x="13" y="26" width="3" height="1" fill="#15281b"/><rect x="16" y="26" width="1" height="1" fill="#bdeb93"/><rect x="17" y="26" width="5" height="1" fill="#3e8f3b"/><rect x="22" y="26" width="2" height="1" fill="#15281b"/><rect x="2" y="27" width="1" height="1" fill="#15281b"/><rect x="3" y="27" width="3" height="1" fill="#e0393e"/><rect x="6" y="27" width="2" height="1" fill="#15281b"/><rect x="13" y="27" width="1" height="1" fill="#15281b"/><rect x="14" y="27" width="2" height="1" fill="#2e6b33"/><rect x="16" y="27" width="6" height="1" fill="#15281b"/><rect x="22" y="27" width="2" height="1" fill="#2e6b33"/><rect x="24" y="27" width="1" height="1" fill="#15281b"/><rect x="2" y="28" width="1" height="1" fill="#15281b"/><rect x="3" y="28" width="1" height="1" fill="#2a2a33"/><rect x="4" y="28" width="3" height="1" fill="#15281b"/><rect x="7" y="28" width="1" height="1" fill="#2a2a33"/><rect x="8" y="28" width="1" height="1" fill="#15281b"/><rect x="14" y="28" width="4" height="1" fill="#15281b"/><rect x="19" y="28" width="1" height="1" fill="#15281b"/><rect x="20" y="28" width="4" height="1" fill="#2e6b33"/><rect x="24" y="28" width="1" height="1" fill="#15281b"/><rect x="3" y="29" width="1" height="1" fill="#15281b"/><rect x="7" y="29" width="1" height="1" fill="#15281b"/><rect x="20" y="29" width="4" height="1" fill="#15281b"/><rect x="13" y="31" width="1" height="1" fill="#000000" fill-opacity="0.133"/><rect x="14" y="31" width="10" height="1" fill="#000000" fill-opacity="0.251"/><rect x="24" y="31" width="1" height="1" fill="#000000" fill-opacity="0.133"/></svg>
