<svg xmlns="http://www.w3.org/2000/svg" viewBox="0 0 32 32" width="1024" height="1024" shape-rendering="crispEdges"><title>Pip: Toe Stand Kick</title><rect x="19" y="0" width="1" height="1" fill="#1a1a22"/><rect x="21" y="0" width="1" height="1" fill="#1a1a22"/><rect x="23" y="0" width="3" height="1" fill="#1a1a22"/><rect x="27" y="0" width="3" height="1" fill="#1a1a22"/><rect x="18" y="1" width="1" height="1" fill="#1a1a22"/><rect x="19" y="1" width="1" height="1" fill="#ffffff"/><rect x="20" y="1" width="1" height="1" fill="#1a1a22"/><rect x="21" y="1" width="1" height="1" fill="#ffffff"/><rect x="22" y="1" width="1" height="1" fill="#1a1a22"/><rect x="23" y="1" width="3" height="1" fill="#ffffff"/><rect x="26" y="1" width="1" height="1" fill="#1a1a22"/><rect x="27" y="1" width="3" height="1" fill="#ffffff"/><rect x="30" y="1" width="1" height="1" fill="#1a1a22"/><rect x="18" y="2" width="1" height="1" fill="#1a1a22"/><rect x="19" y="2" width="1" height="1" fill="#ffffff"/><rect x="20" y="2" width="1" height="1" fill="#1a1a22"/><rect x="21" y="2" width="1" height="1" fill="#ffffff"/><rect x="22" y="2" width="1" height="1" fill="#1a1a22"/><rect x="23" y="2" width="1" height="1" fill="#ffffff"/><rect x="24" y="2" width="3" height="1" fill="#1a1a22"/><rect x="27" y="2" width="1" height="1" fill="#ffffff"/><rect x="28" y="2" width="2" height="1" fill="#1a1a22"/><rect x="18" y="3" width="1" height="1" fill="#1a1a22"/><rect x="19" y="3" width="3" height="1" fill="#ffffff"/><rect x="22" y="3" width="1" height="1" fill="#1a1a22"/><rect x="23" y="3" width="2" height="1" fill="#ffffff"/><rect x="25" y="3" width="2" height="1" fill="#1a1a22"/><rect x="27" y="3" width="2" height="1" fill="#ffffff"/><rect x="29" y="3" width="1" height="1" fill="#1a1a22"/><rect x="18" y="4" width="1" height="1" fill="#1a1a22"/><rect x="19" y="4" width="1" height="1" fill="#ffffff"/><rect x="20" y="4" width="1" height="1" fill="#1a1a22"/><rect x="21" y="4" width="1" height="1" fill="#ffffff"/><rect x="22" y="4" width="1" height="1" fill="#1a1a22"/><rect x="23" y="4" width="1" height="1" fill="#ffffff"/><rect x="24" y="4" width="3" height="1" fill="#1a1a22"/><rect x="27" y="4" width="1" height="1" fill="#ffffff"/><rect x="28" y="4" width="2" height="1" fill="#1a1a22"/><rect x="18" y="5" width="1" height="1" fill="#1a1a22"/><rect x="19" y="5" width="1" height="1" fill="#ffffff"/><rect x="20" y="5" width="1" height="1" fill="#1a1a22"/><rect x="21" y="5" width="1" height="1" fill="#ffffff"/><rect x="22" y="5" width="1" height="1" fill="#1a1a22"/><rect x="23" y="5" width="3" height="1" fill="#ffffff"/><rect x="26" y="5" width="1" height="1" fill="#1a1a22"/><rect x="27" y="5" width="3" height="1" fill="#ffffff"/><rect x="30" y="5" width="1" height="1" fill="#1a1a22"/><rect x="19" y="6" width="1" height="1" fill="#1a1a22"/><rect x="21" y="6" width="1" height="1" fill="#1a1a22"/><rect x="23" y="6" width="3" height="1" fill="#1a1a22"/><rect x="27" y="6" width="3" height="1" fill="#1a1a22"/><rect x="11" y="12" width="7" height="1" fill="#f4f1e8"/><rect x="10" y="13" width="1" height="1" fill="#f4f1e8"/><rect x="11" y="13" width="1" height="1" fill="#3a3a48"/><rect x="12" y="13" width="2" height="1" fill="#1b1b22"/><rect x="14" y="13" width="1" height="1" fill="#0f0f14"/><rect x="15" y="13" width="3" height="1" fill="#1b1b22"/><rect x="18" y="13" width="1" height="1" fill="#f4f1e8"/><rect x="10" y="14" width="1" height="1" fill="#f4f1e8"/><rect x="11" y="14" width="7" height="1" fill="#1b1b22"/><rect x="18" y="14" width="1" height="1" fill="#f4f1e8"/><rect x="9" y="15" width="11" height="1" fill="#f4f1e8"/><rect x="5" y="16" width="2" height="1" fill="#15281b"/><rect x="8" y="16" width="1" height="1" fill="#f4f1e8"/><rect x="9" y="16" width="11" height="1" fill="#1b1b22"/><rect x="20" y="16" width="1" height="1" fill="#f4f1e8"/><rect x="4" y="17" width="1" height="1" fill="#15281b"/><rect x="5" y="17" width="1" height="1" fill="#a2e477"/><rect x="6" y="17" width="1" height="1" fill="#6cc04a"/><rect x="7" y="17" width="1" height="1" fill="#15281b"/><rect x="8" y="17" width="1" height="1" fill="#a2e477"/><rect x="9" y="17" width="11" height="1" fill="#f4f1e8"/><rect x="20" y="17" width="1" height="1" fill="#6cc04a"/><rect x="21" y="17" width="1" height="1" fill="#15281b"/><rect x="3" y="18" width="1" height="1" fill="#15281b"/><rect x="4" y="18" width="1" height="1" fill="#a2e477"/><rect x="5" y="18" width="2" height="1" fill="#6cc04a"/><rect x="7" y="18" width="1" height="1" fill="#3e8f3b"/><rect x="8" y="18" width="1" height="1" fill="#15281b"/><rect x="9" y="18" width="1" height="1" fill="#a2e477"/><rect x="10" y="18" width="1" height="1" fill="#efffd8"/><rect x="11" y="18" width="1" height="1" fill="#10231a"/><rect x="12" y="18" width="1" height="1" fill="#efffd8"/><rect x="13" y="18" width="5" height="1" fill="#6cc04a"/><rect x="18" y="18" width="1" height="1" fill="#10231a"/><rect x="19" y="18" width="3" height="1" fill="#6cc04a"/><rect x="22" y="18" width="1" height="1" fill="#15281b"/><rect x="3" y="19" width="1" height="1" fill="#15281b"/><rect x="4" y="19" width="2" height="1" fill="#6cc04a"/><rect x="6" y="19" width="2" height="1" fill="#3e8f3b"/><rect x="8" y="19" width="1" height="1" fill="#15281b"/><rect x="9" y="19" width="1" height="1" fill="#a2e477"/><rect x="10" y="19" width="2" height="1" fill="#6cc04a"/><rect x="12" y="19" width="1" height="1" fill="#10231a"/><rect x="13" y="19" width="4" height="1" fill="#6cc04a"/><rect x="17" y="19" width="1" height="1" fill="#10231a"/><rect x="18" y="19" width="5" height="1" fill="#6cc04a"/><rect x="23" y="19" width="1" height="1" fill="#15281b"/><rect x="28" y="19" width="1" height="1" fill="#4a3100"/><rect x="4" y="20" width="1" height="1" fill="#15281b"/><rect x="5" y="20" width="2" height="1" fill="#3e8f3b"/><rect x="7" y="20" width="1" height="1" fill="#15281b"/><rect x="8" y="20" width="1" height="1" fill="#a2e477"/><rect x="9" y="20" width="2" height="1" fill="#6cc04a"/><rect x="11" y="20" width="1" height="1" fill="#10231a"/><rect x="12" y="20" width="6" height="1" fill="#6cc04a"/><rect x="18" y="20" width="1" height="1" fill="#10231a"/><rect x="19" y="20" width="4" height="1" fill="#6cc04a"/><rect x="23" y="20" width="2" height="1" fill="#15281b"/><rect x="27" y="20" width="1" height="1" fill="#4a3100"/><rect x="28" y="20" width="1" height="1" fill="#ffd23f"/><rect x="29" y="20" width="1" height="1" fill="#4a3100"/><rect x="5" y="21" width="2" height="1" fill="#15281b"/><rect x="7" y="21" width="15" height="1" fill="#6cc04a"/><rect x="22" y="21" width="1" height="1" fill="#15281b"/><rect x="23" y="21" width="2" height="1" fill="#ffffff"/><rect x="25" y="21" width="1" height="1" fill="#15281b"/><rect x="26" y="21" width="1" height="1" fill="#4a3100"/><rect x="27" y="21" width="3" height="1" fill="#ffd23f"/><rect x="30" y="21" width="1" height="1" fill="#4a3100"/><rect x="6" y="22" width="1" height="1" fill="#15281b"/><rect x="7" y="22" width="2" height="1" fill="#6cc04a"/><rect x="9" y="22" width="2" height="1" fill="#ff8fa3"/><rect x="11" y="22" width="8" height="1" fill="#6cc04a"/><rect x="19" y="22" width="2" height="1" fill="#ff8fa3"/><rect x="21" y="22" width="1" height="1" fill="#15281b"/><rect x="22" y="22" width="3" height="1" fill="#ffffff"/><rect x="25" y="22" width="1" height="1" fill="#4a3100"/><rect x="26" y="22" width="2" height="1" fill="#ffd23f"/><rect x="28" y="22" width="1" height="1" fill="#ffffff"/><rect x="29" y="22" width="2" height="1" fill="#ffd23f"/><rect x="31" y="22" width="1" height="1" fill="#4a3100"/><rect x="7" y="23" width="1" height="1" fill="#15281b"/><rect x="8" y="23" width="6" height="1" fill="#6cc04a"/><rect x="14" y="23" width="2" height="1" fill="#10231a"/><rect x="16" y="23" width="4" height="1" fill="#6cc04a"/><rect x="20" y="23" width="1" height="1" fill="#3e8f3b"/><rect x="21" y="23" width="1" height="1" fill="#15281b"/><rect x="22" y="23" width="2" height="1" fill="#ffffff"/><rect x="24" y="23" width="1" height="1" fill="#d8dee6"/><rect x="25" y="23" width="1" height="1" fill="#15281b"/><rect x="26" y="23" width="1" height="1" fill="#4a3100"/><rect x="27" y="23" width="3" height="1" fill="#ffd23f"/><rect x="30" y="23" width="1" height="1" fill="#4a3100"/><rect x="8" y="24" width="1" height="1" fill="#15281b"/><rect x="9" y="24" width="4" height="1" fill="#6cc04a"/><rect x="13" y="24" width="1" height="1" fill="#bdeb93"/><rect x="14" y="24" width="2" height="1" fill="#10231a"/><rect x="16" y="24" width="2" height="1" fill="#bdeb93"/><rect x="18" y="24" width="1" height="1" fill="#6cc04a"/><rect x="19" y="24" width="3" height="1" fill="#3e8f3b"/><rect x="22" y="24" width="1" height="1" fill="#15281b"/><rect x="23" y="24" width="2" height="1" fill="#d8dee6"/><rect x="25" y="24" width="2" height="1" fill="#15281b"/><rect x="27" y="24" width="1" height="1" fill="#4a3100"/><rect x="28" y="24" width="1" height="1" fill="#ffd23f"/><rect x="29" y="24" width="1" height="1" fill="#4a3100"/><rect x="9" y="25" width="1" height="1" fill="#15281b"/><rect x="10" y="25" width="2" height="1" fill="#6cc04a"/><rect x="12" y="25" width="5" height="1" fill="#bdeb93"/><rect x="17" y="25" width="5" height="1" fill="#3e8f3b"/><rect x="22" y="25" width="3" height="1" fill="#15281b"/><rect x="28" y="25" width="1" height="1" fill="#4a3100"/><rect x="10" y="26" width="1" height="1" fill="#15281b"/><rect x="11" y="26" width="1" height="1" fill="#6cc04a"/><rect x="12" y="26" width="3" height="1" fill="#bdeb93"/><rect x="15" y="26" width="6" height="1" fill="#3e8f3b"/><rect x="21" y="26" width="1" height="1" fill="#15281b"/><rect x="11" y="27" width="2" height="1" fill="#15281b"/><rect x="13" y="27" width="1" height="1" fill="#bdeb93"/><rect x="14" y="27" width="5" height="1" fill="#3e8f3b"/><rect x="19" y="27" width="2" height="1" fill="#15281b"/><rect x="10" y="28" width="1" height="1" fill="#15281b"/><rect x="11" y="28" width="2" height="1" fill="#3e8f3b"/><rect x="13" y="28" width="6" height="1" fill="#15281b"/><rect x="10" y="29" width="1" height="1" fill="#15281b"/><rect x="11" y="29" width="4" height="1" fill="#2e6b33"/><rect x="15" y="29" width="1" height="1" fill="#15281b"/><rect x="11" y="30" width="4" height="1" fill="#15281b"/><rect x="10" y="31" width="1" height="1" fill="#000000" fill-opacity="0.133"/><rect x="11" y="31" width="10" height="1" fill="#000000" fill-opacity="0.251"/><rect x="21" y="31" width="1" height="1" fill="#000000" fill-opacity="0.133"/></svg>
