<svg xmlns="http://www.w3.org/2000/svg" viewBox="0 0 32 32" width="1024" height="1024" shape-rendering="crispEdges"><title>Pip: Moonwalk</title><rect x="16" y="12" width="7" height="1" fill="#f4f1e8"/><rect x="15" y="13" width="1" height="1" fill="#f4f1e8"/><rect x="16" y="13" width="1" height="1" fill="#3a3a48"/><rect x="17" y="13" width="2" height="1" fill="#1b1b22"/><rect x="19" y="13" width="1" height="1" fill="#0f0f14"/><rect x="20" y="13" width="3" height="1" fill="#1b1b22"/><rect x="23" y="13" width="1" height="1" fill="#f4f1e8"/><rect x="15" y="14" width="1" height="1" fill="#f4f1e8"/><rect x="16" y="14" width="7" height="1" fill="#1b1b22"/><rect x="23" y="14" width="1" height="1" fill="#f4f1e8"/><rect x="14" y="15" width="11" height="1" fill="#f4f1e8"/><rect x="13" y="16" width="1" height="1" fill="#f4f1e8"/><rect x="14" y="16" width="11" height="1" fill="#1b1b22"/><rect x="25" y="16" width="1" height="1" fill="#f4f1e8"/><rect x="12" y="17" width="1" height="1" fill="#15281b"/><rect x="13" y="17" width="1" height="1" fill="#a2e477"/><rect x="14" y="17" width="11" height="1" fill="#f4f1e8"/><rect x="25" y="17" width="1" height="1" fill="#6cc04a"/><rect x="26" y="17" width="1" height="1" fill="#15281b"/><rect x="11" y="18" width="1" height="1" fill="#15281b"/><rect x="12" y="18" width="3" height="1" fill="#a2e477"/><rect x="15" y="18" width="2" height="1" fill="#efffd8"/><rect x="17" y="18" width="4" height="1" fill="#10231a"/><rect x="21" y="18" width="2" height="1" fill="#6cc04a"/><rect x="23" y="18" width="4" height="1" fill="#10231a"/><rect x="27" y="18" width="1" height="1" fill="#15281b"/><rect x="11" y="19" width="1" height="1" fill="#15281b"/><rect x="12" y="19" width="3" height="1" fill="#a2e477"/><rect x="15" y="19" width="3" height="1" fill="#6cc04a"/><rect x="18" y="19" width="2" height="1" fill="#10231a"/><rect x="20" y="19" width="4" height="1" fill="#6cc04a"/><rect x="24" y="19" width="2" height="1" fill="#10231a"/><rect x="26" y="19" width="1" height="1" fill="#6cc04a"/><rect x="27" y="19" width="2" height="1" fill="#15281b"/><rect x="11" y="20" width="2" height="1" fill="#15281b"/><rect x="13" y="20" width="5" height="1" fill="#6cc04a"/><rect x="18" y="20" width="2" height="1" fill="#10231a"/><rect x="20" y="20" width="4" height="1" fill="#6cc04a"/><rect x="24" y="20" width="2" height="1" fill="#10231a"/><rect x="26" y="20" width="1" height="1" fill="#15281b"/><rect x="27" y="20" width="2" height="1" fill="#ffffff"/><rect x="29" y="20" width="1" height="1" fill="#15281b"/><rect x="10" y="21" width="1" height="1" fill="#15281b"/><rect x="11" y="21" width="1" height="1" fill="#a2e477"/><rect x="12" y="21" width="1" height="1" fill="#6cc04a"/><rect x="13" y="21" width="1" height="1" fill="#15281b"/><rect x="14" y="21" width="4" height="1" fill="#6cc04a"/><rect x="18" y="21" width="2" height="1" fill="#10231a"/><rect x="20" y="21" width="4" height="1" fill="#6cc04a"/><rect x="24" y="21" width="2" height="1" fill="#10231a"/><rect x="26" y="21" width="1" height="1" fill="#15281b"/><rect x="27" y="21" width="3" height="1" fill="#ffffff"/><rect x="30" y="21" width="1" height="1" fill="#15281b"/><rect x="9" y="22" width="1" height="1" fill="#15281b"/><rect x="10" y="22" width="1" height="1" fill="#a2e477"/><rect x="11" y="22" width="2" height="1" fill="#6cc04a"/><rect x="13" y="22" width="1" height="1" fill="#15281b"/><rect x="14" y="22" width="1" height="1" fill="#6cc04a"/><rect x="15" y="22" width="2" height="1" fill="#ff8fa3"/><rect x="17" y="22" width="6" height="1" fill="#6cc04a"/><rect x="23" y="22" width="1" height="1" fill="#10231a"/><rect x="24" y="22" width="1" height="1" fill="#6cc04a"/><rect x="25" y="22" width="1" height="1" fill="#ff8fa3"/><rect x="26" y="22" width="1" height="1" fill="#15281b"/><rect x="27" y="22" width="2" height="1" fill="#ffffff"/><rect x="29" y="22" width="1" height="1" fill="#d8dee6"/><rect x="30" y="22" width="1" height="1" fill="#15281b"/><rect x="9" y="23" width="1" height="1" fill="#15281b"/><rect x="10" y="23" width="2" height="1" fill="#6cc04a"/><rect x="12" y="23" width="1" height="1" fill="#3e8f3b"/><rect x="13" y="23" width="1" height="1" fill="#15281b"/><rect x="14" y="23" width="5" height="1" fill="#6cc04a"/><rect x="19" y="23" width="2" height="1" fill="#bdeb93"/><rect x="21" y="23" width="1" height="1" fill="#6cc04a"/><rect x="22" y="23" width="1" height="1" fill="#10231a"/><rect x="23" y="23" width="2" height="1" fill="#6cc04a"/><rect x="25" y="23" width="1" height="1" fill="#3e8f3b"/><rect x="26" y="23" width="1" height="1" fill="#15281b"/><rect x="27" y="23" width="1" height="1" fill="#ffffff"/><rect x="28" y="23" width="1" height="1" fill="#d8dee6"/><rect x="29" y="23" width="1" height="1" fill="#15281b"/><rect x="10" y="24" width="1" height="1" fill="#15281b"/><rect x="11" y="24" width="2" height="1" fill="#3e8f3b"/><rect x="13" y="24" width="1" height="1" fill="#15281b"/><rect x="14" y="24" width="3" height="1" fill="#6cc04a"/><rect x="17" y="24" width="3" height="1" fill="#bdeb93"/><rect x="20" y="24" width="2" height="1" fill="#10231a"/><rect x="22" y="24" width="1" height="1" fill="#bdeb93"/><rect x="23" y="24" width="4" height="1" fill="#3e8f3b"/><rect x="27" y="24" width="2" height="1" fill="#15281b"/><rect x="11" y="25" width="3" height="1" fill="#15281b"/><rect x="14" y="25" width="2" height="1" fill="#6cc04a"/><rect x="16" y="25" width="6" height="1" fill="#bdeb93"/><rect x="22" y="25" width="4" height="1" fill="#3e8f3b"/><rect x="26" y="25" width="1" height="1" fill="#15281b"/><rect x="14" y="26" width="1" height="1" fill="#15281b"/><rect x="15" y="26" width="1" height="1" fill="#6cc04a"/><rect x="16" y="26" width="4" height="1" fill="#bdeb93"/><rect x="20" y="26" width="5" height="1" fill="#3e8f3b"/><rect x="25" y="26" width="1" height="1" fill="#15281b"/><rect x="15" y="27" width="2" height="1" fill="#15281b"/><rect x="17" y="27" width="1" height="1" fill="#bdeb93"/><rect x="18" y="27" width="5" height="1" fill="#3e8f3b"/><rect x="23" y="27" width="3" height="1" fill="#15281b"/><rect x="16" y="28" width="7" height="1" fill="#15281b"/><rect x="23" y="28" width="1" height="1" fill="#3e8f3b"/><rect x="24" y="28" width="2" height="1" fill="#2e6b33"/><rect x="26" y="28" width="1" height="1" fill="#15281b"/><rect x="17" y="29" width="1" height="1" fill="#15281b"/><rect x="18" y="29" width="1" height="1" fill="#2e6b33"/><rect x="19" y="29" width="2" height="1" fill="#15281b"/><rect x="21" y="29" width="5" height="1" fill="#2e6b33"/><rect x="26" y="29" width="1" height="1" fill="#15281b"/><rect x="18" y="30" width="1" height="1" fill="#15281b"/><rect x="21" y="30" width="5" height="1" fill="#15281b"/><rect x="31" y="30" width="1" height="1" fill="#ffffff" fill-opacity="0.800"/><rect x="15" y="31" width="1" height="1" fill="#000000" fill-opacity="0.133"/><rect x="16" y="31" width="8" height="1" fill="#000000" fill-opacity="0.251"/><rect x="24" y="31" width="1" height="1" fill="#000000" fill-opacity="0.133"/></svg>
