<svg xmlns="http://www.w3.org/2000/svg" viewBox="0 0 32 32" width="1024" height="1024" shape-rendering="crispEdges"><title>Pip: Mermaid</title><rect x="19" y="5" width="1" height="1" fill="#0c2c36"/><rect x="17" y="6" width="2" height="1" fill="#0c2c36"/><rect x="19" y="6" width="1" height="1" fill="#ff7fa8"/><rect x="20" y="6" width="1" height="1" fill="#0c2c36"/><rect x="16" y="7" width="1" height="1" fill="#0c2c36"/><rect x="17" y="7" width="3" height="1" fill="#ff7fa8"/><rect x="20" y="7" width="1" height="1" fill="#0c2c36"/><rect x="15" y="8" width="1" height="1" fill="#0c2c36"/><rect x="16" y="8" width="2" height="1" fill="#ff7fa8"/><rect x="18" y="8" width="1" height="1" fill="#ffd3e2"/><rect x="19" y="8" width="1" height="1" fill="#d94f7f"/><rect x="20" y="8" width="1" height="1" fill="#0c2c36"/><rect x="15" y="9" width="1" height="1" fill="#0c2c36"/><rect x="16" y="9" width="1" height="1" fill="#ff7fa8"/><rect x="17" y="9" width="2" height="1" fill="#ffd3e2"/><rect x="19" y="9" width="1" height="1" fill="#d94f7f"/><rect x="20" y="9" width="1" height="1" fill="#0c2c36"/><rect x="15" y="10" width="1" height="1" fill="#0c2c36"/><rect x="16" y="10" width="1" height="1" fill="#ff7fa8"/><rect x="17" y="10" width="1" height="1" fill="#ffd3e2"/><rect x="18" y="10" width="2" height="1" fill="#d94f7f"/><rect x="20" y="10" width="1" height="1" fill="#0c2c36"/><rect x="15" y="11" width="1" height="1" fill="#0c2c36"/><rect x="16" y="11" width="2" height="1" fill="#ffd3e2"/><rect x="18" y="11" width="1" height="1" fill="#d94f7f"/><rect x="19" y="11" width="1" height="1" fill="#0c2c36"/><rect x="15" y="12" width="1" height="1" fill="#0c2c36"/><rect x="16" y="12" width="1" height="1" fill="#ffd3e2"/><rect x="17" y="12" width="1" height="1" fill="#d94f7f"/><rect x="18" y="12" width="1" height="1" fill="#0c2c36"/><rect x="14" y="13" width="4" height="1" fill="#0c2c36"/><rect x="12" y="14" width="1" height="1" fill="#5a1a30"/><rect x="13" y="14" width="1" height="1" fill="#0c2c36"/><rect x="14" y="14" width="4" height="1" fill="#8bebe0"/><rect x="18" y="14" width="2" height="1" fill="#0c2c36"/><rect x="10" y="15" width="1" height="1" fill="#0c2c36"/><rect x="11" y="15" width="1" height="1" fill="#5a1a30"/><rect x="12" y="15" width="1" height="1" fill="#ffb3c7"/><rect x="13" y="15" width="1" height="1" fill="#5a1a30"/><rect x="14" y="15" width="4" height="1" fill="#8bebe0"/><rect x="18" y="15" width="2" height="1" fill="#41c4c0"/><rect x="20" y="15" width="2" height="1" fill="#0c2c36"/><rect x="9" y="16" width="1" height="1" fill="#0c2c36"/><rect x="10" y="16" width="1" height="1" fill="#5a1a30"/><rect x="11" y="16" width="1" height="1" fill="#ffb3c7"/><rect x="12" y="16" width="1" height="1" fill="#ff7fa8"/><rect x="13" y="16" width="1" height="1" fill="#ffb3c7"/><rect x="14" y="16" width="1" height="1" fill="#5a1a30"/><rect x="15" y="16" width="2" height="1" fill="#8bebe0"/><rect x="17" y="16" width="5" height="1" fill="#41c4c0"/><rect x="22" y="16" width="1" height="1" fill="#0c2c36"/><rect x="8" y="17" width="1" height="1" fill="#0c2c36"/><rect x="9" y="17" width="1" height="1" fill="#5a1a30"/><rect x="10" y="17" width="2" height="1" fill="#ffb3c7"/><rect x="12" y="17" width="1" height="1" fill="#ff7fa8"/><rect x="13" y="17" width="2" height="1" fill="#ffb3c7"/><rect x="15" y="17" width="1" height="1" fill="#5a1a30"/><rect x="16" y="17" width="7" height="1" fill="#41c4c0"/><rect x="23" y="17" width="1" height="1" fill="#0c2c36"/><rect x="8" y="18" width="1" height="1" fill="#0c2c36"/><rect x="9" y="18" width="1" height="1" fill="#8bebe0"/><rect x="10" y="18" width="5" height="1" fill="#5a1a30"/><rect x="15" y="18" width="3" height="1" fill="#41c4c0"/><rect x="18" y="18" width="1" height="1" fill="#ffffff"/><rect x="19" y="18" width="1" height="1" fill="#0b2430"/><rect x="20" y="18" width="3" height="1" fill="#41c4c0"/><rect x="23" y="18" width="1" height="1" fill="#0c2c36"/><rect x="7" y="19" width="1" height="1" fill="#0c2c36"/><rect x="8" y="19" width="3" height="1" fill="#8bebe0"/><rect x="11" y="19" width="1" height="1" fill="#41c4c0"/><rect x="12" y="19" width="2" height="1" fill="#0b2430"/><rect x="14" y="19" width="4" height="1" fill="#41c4c0"/><rect x="18" y="19" width="2" height="1" fill="#0b2430"/><rect x="20" y="19" width="4" height="1" fill="#41c4c0"/><rect x="24" y="19" width="1" height="1" fill="#0c2c36"/><rect x="7" y="20" width="2" height="1" fill="#0c2c36"/><rect x="9" y="20" width="1" height="1" fill="#8bebe0"/><rect x="10" y="20" width="2" height="1" fill="#41c4c0"/><rect x="12" y="20" width="2" height="1" fill="#0b2430"/><rect x="14" y="20" width="4" height="1" fill="#41c4c0"/><rect x="18" y="20" width="2" height="1" fill="#0b2430"/><rect x="20" y="20" width="3" height="1" fill="#41c4c0"/><rect x="23" y="20" width="2" height="1" fill="#0c2c36"/><rect x="6" y="21" width="1" height="1" fill="#0c2c36"/><rect x="7" y="21" width="1" height="1" fill="#8bebe0"/><rect x="8" y="21" width="1" height="1" fill="#41c4c0"/><rect x="9" y="21" width="1" height="1" fill="#0c2c36"/><rect x="10" y="21" width="2" height="1" fill="#41c4c0"/><rect x="12" y="21" width="2" height="1" fill="#0b2430"/><rect x="14" y="21" width="4" height="1" fill="#41c4c0"/><rect x="18" y="21" width="2" height="1" fill="#0b2430"/><rect x="20" y="21" width="2" height="1" fill="#41c4c0"/><rect x="22" y="21" width="1" height="1" fill="#0c2c36"/><rect x="23" y="21" width="2" height="1" fill="#8bebe0"/><rect x="25" y="21" width="1" height="1" fill="#0c2c36"/><rect x="5" y="22" width="1" height="1" fill="#0c2c36"/><rect x="6" y="22" width="1" height="1" fill="#8bebe0"/><rect x="7" y="22" width="2" height="1" fill="#41c4c0"/><rect x="9" y="22" width="1" height="1" fill="#0c2c36"/><rect x="10" y="22" width="2" height="1" fill="#ff8fb0"/><rect x="12" y="22" width="8" height="1" fill="#41c4c0"/><rect x="20" y="22" width="2" height="1" fill="#ff8fb0"/><rect x="22" y="22" width="1" height="1" fill="#0c2c36"/><rect x="23" y="22" width="1" height="1" fill="#8bebe0"/><rect x="24" y="22" width="2" height="1" fill="#41c4c0"/><rect x="26" y="22" width="1" height="1" fill="#0c2c36"/><rect x="5" y="23" width="1" height="1" fill="#0c2c36"/><rect x="6" y="23" width="2" height="1" fill="#41c4c0"/><rect x="8" y="23" width="1" height="1" fill="#23898f"/><rect x="9" y="23" width="1" height="1" fill="#0c2c36"/><rect x="10" y="23" width="4" height="1" fill="#41c4c0"/><rect x="14" y="23" width="1" height="1" fill="#0b2430"/><rect x="15" y="23" width="2" height="1" fill="#41c4c0"/><rect x="17" y="23" width="1" height="1" fill="#0b2430"/><rect x="18" y="23" width="3" height="1" fill="#41c4c0"/><rect x="21" y="23" width="1" height="1" fill="#23898f"/><rect x="22" y="23" width="1" height="1" fill="#0c2c36"/><rect x="23" y="23" width="2" height="1" fill="#41c4c0"/><rect x="25" y="23" width="1" height="1" fill="#23898f"/><rect x="26" y="23" width="1" height="1" fill="#0c2c36"/><rect x="6" y="24" width="1" height="1" fill="#0c2c36"/><rect x="7" y="24" width="2" height="1" fill="#23898f"/><rect x="9" y="24" width="1" height="1" fill="#0c2c36"/><rect x="10" y="24" width="2" height="1" fill="#49c9c4"/><rect x="12" y="24" width="1" height="1" fill="#2a9fa6"/><rect x="13" y="24" width="2" height="1" fill="#49c9c4"/><rect x="15" y="24" width="2" height="1" fill="#0b2430"/><rect x="17" y="24" width="1" height="1" fill="#49c9c4"/><rect x="18" y="24" width="1" height="1" fill="#2a9fa6"/><rect x="19" y="24" width="1" height="1" fill="#49c9c4"/><rect x="20" y="24" width="1" height="1" fill="#2a8f9a"/><rect x="21" y="24" width="1" height="1" fill="#1b6e78"/><rect x="22" y="24" width="1" height="1" fill="#0c2c36"/><rect x="23" y="24" width="1" height="1" fill="#41c4c0"/><rect x="24" y="24" width="1" height="1" fill="#23898f"/><rect x="25" y="24" width="1" height="1" fill="#0c2c36"/><rect x="7" y="25" width="3" height="1" fill="#0c2c36"/><rect x="10" y="25" width="1" height="1" fill="#5ad6ce"/><rect x="11" y="25" width="1" height="1" fill="#2a9fa6"/><rect x="12" y="25" width="2" height="1" fill="#5ad6ce"/><rect x="14" y="25" width="1" height="1" fill="#2a9fa6"/><rect x="15" y="25" width="2" height="1" fill="#5ad6ce"/><rect x="17" y="25" width="1" height="1" fill="#2a9fa6"/><rect x="18" y="25" width="2" height="1" fill="#5ad6ce"/><rect x="20" y="25" width="1" height="1" fill="#1b6e78"/><rect x="21" y="25" width="1" height="1" fill="#2a8f9a"/><rect x="22" y="25" width="3" height="1" fill="#0c2c36"/><rect x="10" y="26" width="1" height="1" fill="#0c2c36"/><rect x="11" y="26" width="1" height="1" fill="#49c9c4"/><rect x="12" y="26" width="1" height="1" fill="#2a9fa6"/><rect x="13" y="26" width="2" height="1" fill="#49c9c4"/><rect x="15" y="26" width="1" height="1" fill="#2a9fa6"/><rect x="16" y="26" width="2" height="1" fill="#49c9c4"/><rect x="18" y="26" width="1" height="1" fill="#2a9fa6"/><rect x="19" y="26" width="1" height="1" fill="#ffffff"/><rect x="20" y="26" width="1" height="1" fill="#2a8f9a"/><rect x="21" y="26" width="1" height="1" fill="#0c2c36"/><rect x="10" y="27" width="3" height="1" fill="#0c2c36"/><rect x="13" y="27" width="1" height="1" fill="#2a8f9a"/><rect x="14" y="27" width="1" height="1" fill="#1b6e78"/><rect x="15" y="27" width="2" height="1" fill="#2a8f9a"/><rect x="17" y="27" width="1" height="1" fill="#1b6e78"/><rect x="18" y="27" width="1" height="1" fill="#2a8f9a"/><rect x="19" y="27" width="3" height="1" fill="#0c2c36"/><rect x="9" y="28" width="1" height="1" fill="#0c2c36"/><rect x="10" y="28" width="3" height="1" fill="#23898f"/><rect x="13" y="28" width="6" height="1" fill="#0c2c36"/><rect x="19" y="28" width="1" height="1" fill="#23898f"/><rect x="20" y="28" width="2" height="1" fill="#1e7482"/><rect x="22" y="28" width="1" height="1" fill="#0c2c36"/><rect x="9" y="29" width="1" height="1" fill="#0c2c36"/><rect x="10" y="29" width="5" height="1" fill="#1e7482"/><rect x="15" y="29" width="2" height="1" fill="#0c2c36"/><rect x="17" y="29" width="5" height="1" fill="#1e7482"/><rect x="22" y="29" width="1" height="1" fill="#0c2c36"/><rect x="10" y="30" width="2" height="1" fill="#0c2c36"/><rect x="12" y="30" width="1" height="1" fill="#1e7482"/><rect x="13" y="30" width="2" height="1" fill="#0c2c36"/><rect x="17" y="30" width="2" height="1" fill="#0c2c36"/><rect x="19" y="30" width="1" height="1" fill="#1e7482"/><rect x="20" y="30" width="2" height="1" fill="#0c2c36"/><rect x="10" y="31" width="1" height="1" fill="#000000" fill-opacity="0.133"/><rect x="11" y="31" width="1" height="1" fill="#000000" fill-opacity="0.251"/><rect x="12" y="31" width="1" height="1" fill="#0c2c36"/><rect x="13" y="31" width="6" height="1" fill="#000000" fill-opacity="0.251"/><rect x="19" y="31" width="1" height="1" fill="#0c2c36"/><rect x="20" y="31" width="1" height="1" fill="#000000" fill-opacity="0.251"/><rect x="21" y="31" width="1" height="1" fill="#000000" fill-opacity="0.133"/></svg>
