<svg xmlns="http://www.w3.org/2000/svg" viewBox="0 0 32 32" width="1024" height="1024" shape-rendering="crispEdges"><title>Pip: Smitten</title><rect x="19" y="5" width="1" height="1" fill="#15281b"/><rect x="17" y="6" width="2" height="1" fill="#15281b"/><rect x="19" y="6" width="1" height="1" fill="#ff7aa2"/><rect x="20" y="6" width="1" height="1" fill="#15281b"/><rect x="16" y="7" width="1" height="1" fill="#15281b"/><rect x="17" y="7" width="3" height="1" fill="#ff7aa2"/><rect x="20" y="7" width="1" height="1" fill="#15281b"/><rect x="24" y="7" width="1" height="1" fill="#4a0e1c"/><rect x="26" y="7" width="1" height="1" fill="#4a0e1c"/><rect x="15" y="8" width="1" height="1" fill="#15281b"/><rect x="16" y="8" width="2" height="1" fill="#ff7aa2"/><rect x="18" y="8" width="1" height="1" fill="#b9f0b4"/><rect x="19" y="8" width="1" height="1" fill="#d94f7c"/><rect x="20" y="8" width="1" height="1" fill="#15281b"/><rect x="23" y="8" width="1" height="1" fill="#4a0e1c"/><rect x="24" y="8" width="1" height="1" fill="#ff4d6d"/><rect x="25" y="8" width="1" height="1" fill="#4a0e1c"/><rect x="26" y="8" width="1" height="1" fill="#ff4d6d"/><rect x="27" y="8" width="1" height="1" fill="#4a0e1c"/><rect x="15" y="9" width="1" height="1" fill="#15281b"/><rect x="16" y="9" width="1" height="1" fill="#ff7aa2"/><rect x="17" y="9" width="2" height="1" fill="#b9f0b4"/><rect x="19" y="9" width="1" height="1" fill="#d94f7c"/><rect x="20" y="9" width="1" height="1" fill="#15281b"/><rect x="23" y="9" width="1" height="1" fill="#4a0e1c"/><rect x="24" y="9" width="3" height="1" fill="#ff4d6d"/><rect x="27" y="9" width="1" height="1" fill="#4a0e1c"/><rect x="15" y="10" width="1" height="1" fill="#15281b"/><rect x="16" y="10" width="1" height="1" fill="#ff7aa2"/><rect x="17" y="10" width="1" height="1" fill="#b9f0b4"/><rect x="18" y="10" width="2" height="1" fill="#d94f7c"/><rect x="20" y="10" width="1" height="1" fill="#15281b"/><rect x="24" y="10" width="1" height="1" fill="#4a0e1c"/><rect x="25" y="10" width="1" height="1" fill="#ff4d6d"/><rect x="26" y="10" width="1" height="1" fill="#4a0e1c"/><rect x="15" y="11" width="1" height="1" fill="#15281b"/><rect x="16" y="11" width="2" height="1" fill="#b9f0b4"/><rect x="18" y="11" width="1" height="1" fill="#d94f7c"/><rect x="19" y="11" width="1" height="1" fill="#15281b"/><rect x="25" y="11" width="1" height="1" fill="#4a0e1c"/><rect x="15" y="12" width="1" height="1" fill="#15281b"/><rect x="16" y="12" width="1" height="1" fill="#b9f0b4"/><rect x="17" y="12" width="1" height="1" fill="#d94f7c"/><rect x="18" y="12" width="1" height="1" fill="#15281b"/><rect x="14" y="13" width="4" height="1" fill="#15281b"/><rect x="12" y="14" width="2" height="1" fill="#15281b"/><rect x="14" y="14" width="4" height="1" fill="#a2e477"/><rect x="18" y="14" width="2" height="1" fill="#15281b"/><rect x="5" y="15" width="1" height="1" fill="#4a0e1c"/><rect x="7" y="15" width="1" height="1" fill="#4a0e1c"/><rect x="10" y="15" width="2" height="1" fill="#15281b"/><rect x="12" y="15" width="6" height="1" fill="#a2e477"/><rect x="18" y="15" width="2" height="1" fill="#6cc04a"/><rect x="20" y="15" width="2" height="1" fill="#15281b"/><rect x="4" y="16" width="1" height="1" fill="#4a0e1c"/><rect x="5" y="16" width="1" height="1" fill="#ff4d6d"/><rect x="6" y="16" width="1" height="1" fill="#4a0e1c"/><rect x="7" y="16" width="1" height="1" fill="#ff4d6d"/><rect x="8" y="16" width="1" height="1" fill="#4a0e1c"/><rect x="9" y="16" width="1" height="1" fill="#15281b"/><rect x="10" y="16" width="1" height="1" fill="#a2e477"/><rect x="11" y="16" width="2" height="1" fill="#10231a"/><rect x="13" y="16" width="1" height="1" fill="#efffd8"/><rect x="14" y="16" width="2" height="1" fill="#10231a"/><rect x="16" y="16" width="1" height="1" fill="#a2e477"/><rect x="17" y="16" width="2" height="1" fill="#10231a"/><rect x="19" y="16" width="1" height="1" fill="#6cc04a"/><rect x="20" y="16" width="2" height="1" fill="#10231a"/><rect x="22" y="16" width="1" height="1" fill="#15281b"/><rect x="4" y="17" width="1" height="1" fill="#4a0e1c"/><rect x="5" y="17" width="3" height="1" fill="#ff4d6d"/><rect x="8" y="17" width="1" height="1" fill="#4a0e1c"/><rect x="9" y="17" width="1" height="1" fill="#a2e477"/><rect x="10" y="17" width="1" height="1" fill="#10231a"/><rect x="11" y="17" width="2" height="1" fill="#ff4d6d"/><rect x="13" y="17" width="1" height="1" fill="#10231a"/><rect x="14" y="17" width="2" height="1" fill="#ff4d6d"/><rect x="16" y="17" width="1" height="1" fill="#10231a"/><rect x="17" y="17" width="2" height="1" fill="#ff4d6d"/><rect x="19" y="17" width="1" height="1" fill="#10231a"/><rect x="20" y="17" width="2" height="1" fill="#ff4d6d"/><rect x="22" y="17" width="1" height="1" fill="#10231a"/><rect x="23" y="17" width="1" height="1" fill="#15281b"/><rect x="5" y="18" width="1" height="1" fill="#4a0e1c"/><rect x="6" y="18" width="1" height="1" fill="#ff4d6d"/><rect x="7" y="18" width="1" height="1" fill="#4a0e1c"/><rect x="8" y="18" width="1" height="1" fill="#15281b"/><rect x="9" y="18" width="1" height="1" fill="#10231a"/><rect x="10" y="18" width="1" height="1" fill="#ff4d6d"/><rect x="11" y="18" width="1" height="1" fill="#ffb3c1"/><rect x="12" y="18" width="3" height="1" fill="#ff4d6d"/><rect x="15" y="18" width="1" height="1" fill="#10231a"/><rect x="16" y="18" width="1" height="1" fill="#ff4d6d"/><rect x="17" y="18" width="1" height="1" fill="#ffb3c1"/><rect x="18" y="18" width="5" height="1" fill="#ff4d6d"/><rect x="23" y="18" width="1" height="1" fill="#10231a"/><rect x="6" y="19" width="1" height="1" fill="#4a0e1c"/><rect x="7" y="19" width="1" height="1" fill="#15281b"/><rect x="8" y="19" width="1" height="1" fill="#a2e477"/><rect x="9" y="19" width="1" height="1" fill="#10231a"/><rect x="10" y="19" width="5" height="1" fill="#ff4d6d"/><rect x="15" y="19" width="1" height="1" fill="#10231a"/><rect x="16" y="19" width="7" height="1" fill="#ff4d6d"/><rect x="23" y="19" width="1" height="1" fill="#10231a"/><rect x="24" y="19" width="1" height="1" fill="#15281b"/><rect x="7" y="20" width="3" height="1" fill="#15281b"/><rect x="10" y="20" width="1" height="1" fill="#10231a"/><rect x="11" y="20" width="5" height="1" fill="#ff4d6d"/><rect x="16" y="20" width="1" height="1" fill="#10231a"/><rect x="17" y="20" width="5" height="1" fill="#ff4d6d"/><rect x="22" y="20" width="3" height="1" fill="#15281b"/><rect x="7" y="21" width="1" height="1" fill="#15281b"/><rect x="8" y="21" width="1" height="1" fill="#a2e477"/><rect x="9" y="21" width="1" height="1" fill="#6cc04a"/><rect x="10" y="21" width="1" height="1" fill="#15281b"/><rect x="11" y="21" width="1" height="1" fill="#10231a"/><rect x="12" y="21" width="3" height="1" fill="#ff4d6d"/><rect x="15" y="21" width="1" height="1" fill="#10231a"/><rect x="16" y="21" width="1" height="1" fill="#6cc04a"/><rect x="17" y="21" width="1" height="1" fill="#10231a"/><rect x="18" y="21" width="3" height="1" fill="#ff4d6d"/><rect x="21" y="21" width="1" height="1" fill="#15281b"/><rect x="22" y="21" width="1" height="1" fill="#a2e477"/><rect x="23" y="21" width="1" height="1" fill="#6cc04a"/><rect x="24" y="21" width="1" height="1" fill="#15281b"/><rect x="6" y="22" width="1" height="1" fill="#15281b"/><rect x="7" y="22" width="1" height="1" fill="#a2e477"/><rect x="8" y="22" width="2" height="1" fill="#6cc04a"/><rect x="10" y="22" width="1" height="1" fill="#3e8f3b"/><rect x="11" y="22" width="1" height="1" fill="#15281b"/><rect x="12" y="22" width="1" height="1" fill="#10231a"/><rect x="13" y="22" width="1" height="1" fill="#ff4d6d"/><rect x="14" y="22" width="1" height="1" fill="#10231a"/><rect x="15" y="22" width="3" height="1" fill="#6cc04a"/><rect x="18" y="22" width="1" height="1" fill="#10231a"/><rect x="19" y="22" width="1" height="1" fill="#ff4d6d"/><rect x="20" y="22" width="1" height="1" fill="#15281b"/><rect x="21" y="22" width="1" height="1" fill="#a2e477"/><rect x="22" y="22" width="2" height="1" fill="#6cc04a"/><rect x="24" y="22" width="1" height="1" fill="#3e8f3b"/><rect x="25" y="22" width="1" height="1" fill="#15281b"/><rect x="6" y="23" width="1" height="1" fill="#15281b"/><rect x="7" y="23" width="2" height="1" fill="#6cc04a"/><rect x="9" y="23" width="2" height="1" fill="#3e8f3b"/><rect x="11" y="23" width="1" height="1" fill="#15281b"/><rect x="12" y="23" width="1" height="1" fill="#6cc04a"/><rect x="13" y="23" width="2" height="1" fill="#10231a"/><rect x="15" y="23" width="2" height="1" fill="#bdeb93"/><rect x="17" y="23" width="1" height="1" fill="#10231a"/><rect x="18" y="23" width="1" height="1" fill="#6cc04a"/><rect x="19" y="23" width="1" height="1" fill="#10231a"/><rect x="20" y="23" width="1" height="1" fill="#15281b"/><rect x="21" y="23" width="2" height="1" fill="#6cc04a"/><rect x="23" y="23" width="2" height="1" fill="#3e8f3b"/><rect x="25" y="23" width="1" height="1" fill="#15281b"/><rect x="7" y="24" width="1" height="1" fill="#15281b"/><rect x="8" y="24" width="2" height="1" fill="#3e8f3b"/><rect x="10" y="24" width="1" height="1" fill="#15281b"/><rect x="11" y="24" width="2" height="1" fill="#6cc04a"/><rect x="13" y="24" width="2" height="1" fill="#bdeb93"/><rect x="15" y="24" width="2" height="1" fill="#10231a"/><rect x="17" y="24" width="2" height="1" fill="#bdeb93"/><rect x="19" y="24" width="2" height="1" fill="#3e8f3b"/><rect x="21" y="24" width="1" height="1" fill="#15281b"/><rect x="22" y="24" width="2" height="1" fill="#3e8f3b"/><rect x="24" y="24" width="1" height="1" fill="#15281b"/><rect x="8" y="25" width="2" height="1" fill="#15281b"/><rect x="10" y="25" width="2" height="1" fill="#6cc04a"/><rect x="12" y="25" width="5" height="1" fill="#bdeb93"/><rect x="17" y="25" width="5" height="1" fill="#3e8f3b"/><rect x="22" y="25" width="2" height="1" fill="#15281b"/><rect x="10" y="26" width="1" height="1" fill="#15281b"/><rect x="11" y="26" width="1" height="1" fill="#6cc04a"/><rect x="12" y="26" width="4" height="1" fill="#bdeb93"/><rect x="16" y="26" width="5" height="1" fill="#3e8f3b"/><rect x="21" y="26" width="1" height="1" fill="#15281b"/><rect x="10" y="27" width="3" height="1" fill="#15281b"/><rect x="13" y="27" width="1" height="1" fill="#bdeb93"/><rect x="14" y="27" width="5" height="1" fill="#3e8f3b"/><rect x="19" y="27" width="3" height="1" fill="#15281b"/><rect x="9" y="28" width="1" height="1" fill="#15281b"/><rect x="10" y="28" width="3" height="1" fill="#3e8f3b"/><rect x="13" y="28" width="6" height="1" fill="#15281b"/><rect x="19" y="28" width="1" height="1" fill="#3e8f3b"/><rect x="20" y="28" width="2" height="1" fill="#2e6b33"/><rect x="22" y="28" width="1" height="1" fill="#15281b"/><rect x="9" y="29" width="1" height="1" fill="#15281b"/><rect x="10" y="29" width="5" height="1" fill="#2e6b33"/><rect x="15" y="29" width="2" height="1" fill="#15281b"/><rect x="17" y="29" width="5" height="1" fill="#2e6b33"/><rect x="22" y="29" width="1" height="1" fill="#15281b"/><rect x="10" y="30" width="2" height="1" fill="#15281b"/><rect x="12" y="30" width="1" height="1" fill="#2e6b33"/><rect x="13" y="30" width="2" height="1" fill="#15281b"/><rect x="17" y="30" width="2" height="1" fill="#15281b"/><rect x="19" y="30" width="1" height="1" fill="#2e6b33"/><rect x="20" y="30" width="2" height="1" fill="#15281b"/><rect x="10" y="31" width="1" height="1" fill="#000000" fill-opacity="0.133"/><rect x="11" y="31" width="1" height="1" fill="#000000" fill-opacity="0.251"/><rect x="12" y="31" width="1" height="1" fill="#15281b"/><rect x="13" y="31" width="6" height="1" fill="#000000" fill-opacity="0.251"/><rect x="19" y="31" width="1" height="1" fill="#15281b"/><rect x="20" y="31" width="1" height="1" fill="#000000" fill-opacity="0.251"/><rect x="21" y="31" width="1" height="1" fill="#000000" fill-opacity="0.133"/></svg>
